<svg id="Layer_1" data-name="Layer 1" xmlns="http://www.w3.org/2000/svg" xmlns:xlink="http://www.w3.org/1999/xlink" viewBox="0 0 31.7 27.69"><defs><style>.cls-1{fill:url(#radial-gradient);}.cls-2{fill:#fff;}</style><radialGradient id="radial-gradient" cx="0.12" cy="-0.8" r="29.62" gradientUnits="userSpaceOnUse"><stop offset="0" stop-color="#32fcb6"/><stop offset="1" stop-color="#2469ff"/></radialGradient></defs><title>Codevider_logo</title><path class="cls-1" d="M23.32,0H8.38a.9.9,0,0,0-.79.45L.12,13.39a.92.92,0,0,0,0,.91L7.59,27.24a.9.9,0,0,0,.79.45H23.32a.93.93,0,0,0,.79-.45L31.58,14.3a.92.92,0,0,0,0-.91L24.11.45A.93.93,0,0,0,23.32,0Z"/><path class="cls-2" d="M15.85,20.61,10.7,15.46A4.81,4.81,0,0,1,9.16,12.2a3.72,3.72,0,0,1,1.11-2.79,4,4,0,0,1,5.58,0,4,4,0,0,1,5.58,0,3.72,3.72,0,0,1,1.11,2.78A4.79,4.79,0,0,1,21,15.46ZM13,9.63a2.46,2.46,0,0,0-2.47,2.53,3.52,3.52,0,0,0,1.15,2.36l4.22,4.22,4.21-4.22a3.49,3.49,0,0,0,1.16-2.36,2.46,2.46,0,0,0-.72-1.82c-.9-.9-2.6-1.15-4.19.44l-.46.47-.47-.47A3.46,3.46,0,0,0,13,9.63Z"/><path class="cls-2" d="M22.86,22.61a.48.48,0,0,1-.26-.07.53.53,0,0,1-.2-.73l4.6-8-4.6-8a.54.54,0,1,1,.93-.54l4.75,8.23a.52.52,0,0,1,0,.54l-4.75,8.22A.53.53,0,0,1,22.86,22.61Z"/><path class="cls-2" d="M8.83,22.61a.52.52,0,0,1-.46-.27L3.62,14.12a.52.52,0,0,1,0-.54L8.37,5.35a.54.54,0,1,1,.93.54l-4.6,8,4.6,8a.53.53,0,0,1-.2.73A.52.52,0,0,1,8.83,22.61Z"/></svg>